<svg xmlns="http://www.w3.org/2000/svg" width="860" height="980" viewBox="0 0 860 980" role="img" aria-labelledby="title desc">
  <title id="title">RM Digital Hero Showcase</title>
  <desc id="desc">Mockup visual para el hero de RM Digital con interfaz web y movil.</desc>
  <defs>
    <linearGradient id="bg" x1="12%" y1="8%" x2="88%" y2="92%">
      <stop offset="0%" stop-color="#0F233A"/>
      <stop offset="55%" stop-color="#18314C"/>
      <stop offset="100%" stop-color="#0A1624"/>
    </linearGradient>
    <linearGradient id="accent" x1="0%" y1="0%" x2="100%" y2="100%">
      <stop offset="0%" stop-color="#F5A623"/>
      <stop offset="100%" stop-color="#FFD27A"/>
    </linearGradient>
    <linearGradient id="glass" x1="0%" y1="0%" x2="100%" y2="100%">
      <stop offset="0%" stop-color="rgba(255,255,255,0.28)"/>
      <stop offset="100%" stop-color="rgba(255,255,255,0.06)"/>
    </linearGradient>
    <filter id="shadow" x="-20%" y="-20%" width="140%" height="140%">
      <feDropShadow dx="0" dy="32" stdDeviation="28" flood-color="#02060A" flood-opacity="0.45"/>
    </filter>
  </defs>

  <rect width="860" height="980" rx="52" fill="url(#bg)"/>
  <circle cx="720" cy="120" r="180" fill="#F5A623" opacity="0.16"/>
  <circle cx="140" cy="180" r="110" fill="#FFFFFF" opacity="0.06"/>
  <circle cx="190" cy="840" r="150" fill="#F5A623" opacity="0.14"/>

  <g opacity="0.3">
    <path d="M80 240H780" stroke="#FFFFFF" stroke-opacity="0.16"/>
    <path d="M80 420H780" stroke="#FFFFFF" stroke-opacity="0.12"/>
    <path d="M80 600H780" stroke="#FFFFFF" stroke-opacity="0.12"/>
    <path d="M280 120V860" stroke="#FFFFFF" stroke-opacity="0.08"/>
    <path d="M560 120V860" stroke="#FFFFFF" stroke-opacity="0.08"/>
  </g>

  <g filter="url(#shadow)">
    <rect x="90" y="110" width="560" height="650" rx="36" fill="rgba(255,255,255,0.07)" stroke="rgba(255,255,255,0.16)"/>
    <rect x="122" y="142" width="496" height="56" rx="28" fill="rgba(255,255,255,0.08)" stroke="rgba(255,255,255,0.12)"/>
    <circle cx="160" cy="170" r="7" fill="#FFFFFF" opacity="0.72"/>
    <circle cx="184" cy="170" r="7" fill="#FFFFFF" opacity="0.48"/>
    <circle cx="208" cy="170" r="7" fill="#FFFFFF" opacity="0.28"/>
    <rect x="260" y="154" width="278" height="32" rx="16" fill="rgba(255,255,255,0.08)"/>
    <text x="286" y="175" fill="#DCE5F2" font-family="'Plus Jakarta Sans', Arial, sans-serif" font-size="20" font-weight="700">rmdigital.net/presencia-inteligente</text>

    <text x="130" y="278" fill="#FFFFFF" font-family="'Plus Jakarta Sans', Arial, sans-serif" font-size="56" font-weight="800">Haz que tu negocio se vea</text>
    <text x="130" y="344" fill="#FFFFFF" font-family="'Plus Jakarta Sans', Arial, sans-serif" font-size="56" font-weight="800">actual, claro y listo para</text>
    <text x="130" y="410" fill="#FFC966" font-family="'Plus Jakarta Sans', Arial, sans-serif" font-size="56" font-weight="800">convertir visitas en ventas</text>

    <text x="130" y="470" fill="#D1DCEA" font-family="'Outfit', Arial, sans-serif" font-size="26">Diseño web, marketing, WhatsApp y automatización</text>
    <text x="130" y="506" fill="#D1DCEA" font-family="'Outfit', Arial, sans-serif" font-size="26">en una experiencia moderna y entendible.</text>

    <rect x="130" y="560" width="152" height="120" rx="24" fill="rgba(255,255,255,0.08)" stroke="rgba(255,255,255,0.12)"/>
    <text x="156" y="598" fill="#F4B13E" font-family="'Outfit', Arial, sans-serif" font-size="18" font-weight="700" letter-spacing="2">WEB</text>
    <text x="156" y="644" fill="#FFFFFF" font-family="'Plus Jakarta Sans', Arial, sans-serif" font-size="34" font-weight="800">UX</text>
    <text x="156" y="674" fill="#C8D3E0" font-family="'Outfit', Arial, sans-serif" font-size="20">Experiencia fluida</text>

    <rect x="300" y="560" width="152" height="120" rx="24" fill="rgba(255,255,255,0.08)" stroke="rgba(255,255,255,0.12)"/>
    <text x="326" y="598" fill="#F4B13E" font-family="'Outfit', Arial, sans-serif" font-size="18" font-weight="700" letter-spacing="2">ADS</text>
    <text x="326" y="644" fill="#FFFFFF" font-family="'Plus Jakarta Sans', Arial, sans-serif" font-size="34" font-weight="800">ROI</text>
    <text x="326" y="674" fill="#C8D3E0" font-family="'Outfit', Arial, sans-serif" font-size="20">Tráfico con intención</text>

    <rect x="470" y="560" width="122" height="120" rx="24" fill="rgba(255,255,255,0.08)" stroke="rgba(255,255,255,0.12)"/>
    <text x="498" y="598" fill="#F4B13E" font-family="'Outfit', Arial, sans-serif" font-size="18" font-weight="700" letter-spacing="2">CRM</text>
    <text x="498" y="644" fill="#FFFFFF" font-family="'Plus Jakarta Sans', Arial, sans-serif" font-size="34" font-weight="800">24/7</text>
    <text x="498" y="674" fill="#C8D3E0" font-family="'Outfit', Arial, sans-serif" font-size="20">Seguimiento</text>
  </g>

  <g filter="url(#shadow)">
    <rect x="548" y="240" width="196" height="488" rx="36" fill="rgba(255,255,255,0.1)" stroke="rgba(255,255,255,0.18)"/>
    <rect x="614" y="258" width="64" height="10" rx="5" fill="#FFFFFF" opacity="0.3"/>
    <rect x="566" y="298" width="160" height="390" rx="30" fill="#0C1928"/>
    <rect x="586" y="334" width="120" height="78" rx="24" fill="rgba(245,166,35,0.14)" stroke="rgba(245,166,35,0.22)"/>
    <text x="604" y="368" fill="#FFFFFF" font-family="'Plus Jakarta Sans', Arial, sans-serif" font-size="20" font-weight="800">WhatsApp</text>
    <text x="604" y="395" fill="#D1DCEA" font-family="'Outfit', Arial, sans-serif" font-size="16">CTA visible</text>

    <rect x="586" y="430" width="120" height="96" rx="24" fill="rgba(255,255,255,0.08)" stroke="rgba(255,255,255,0.12)"/>
    <text x="604" y="466" fill="#FFFFFF" font-family="'Plus Jakarta Sans', Arial, sans-serif" font-size="20" font-weight="800">Contenido</text>
    <text x="604" y="494" fill="#D1DCEA" font-family="'Outfit', Arial, sans-serif" font-size="16">Mensajes</text>
    <text x="604" y="516" fill="#D1DCEA" font-family="'Outfit', Arial, sans-serif" font-size="16">claros</text>

    <rect x="586" y="544" width="120" height="112" rx="24" fill="rgba(255,255,255,0.08)" stroke="rgba(255,255,255,0.12)"/>
    <text x="604" y="580" fill="#FFFFFF" font-family="'Plus Jakarta Sans', Arial, sans-serif" font-size="20" font-weight="800">Embudo</text>
    <text x="604" y="608" fill="#D1DCEA" font-family="'Outfit', Arial, sans-serif" font-size="16">Cada scroll</text>
    <text x="604" y="630" fill="#D1DCEA" font-family="'Outfit', Arial, sans-serif" font-size="16">lleva a la acción</text>
  </g>

  <g filter="url(#shadow)">
    <rect x="102" y="790" width="244" height="82" rx="26" fill="rgba(255,255,255,0.1)" stroke="rgba(255,255,255,0.16)"/>
    <circle cx="144" cy="831" r="14" fill="#F5A623"/>
    <text x="176" y="826" fill="#FFFFFF" font-family="'Plus Jakarta Sans', Arial, sans-serif" font-size="22" font-weight="800">Más claridad visual</text>
    <text x="176" y="853" fill="#D1DCEA" font-family="'Outfit', Arial, sans-serif" font-size="18">Jerarquía y confianza</text>
  </g>

  <g filter="url(#shadow)">
    <rect x="376" y="820" width="302" height="82" rx="26" fill="rgba(255,255,255,0.1)" stroke="rgba(255,255,255,0.16)"/>
    <circle cx="418" cy="861" r="14" fill="#FFFFFF" opacity="0.22"/>
    <path d="M413 861c4-8 9-13 19-16-3 10-8 15-16 19l-6 3z" fill="#F5A623"/>
    <text x="450" y="856" fill="#FFFFFF" font-family="'Plus Jakarta Sans', Arial, sans-serif" font-size="22" font-weight="800">Experiencia lista para vender</text>
    <text x="450" y="883" fill="#D1DCEA" font-family="'Outfit', Arial, sans-serif" font-size="18">Web + redes + contacto alineados</text>
  </g>
</svg>
